<?xml version="1.0" encoding="UTF-8" standalone="no"?>
<!DOCTYPE svg PUBLIC "-//W3C//DTD SVG 1.1//EN" "http://www.w3.org/Graphics/SVG/1.1/DTD/svg11.dtd">
<svg width="100%" height="100%" viewBox="0 0 1099 397" version="1.1" xmlns="http://www.w3.org/2000/svg" xmlns:xlink="http://www.w3.org/1999/xlink" xml:space="preserve" xmlns:serif="http://www.serif.com/" style="fill-rule:evenodd;clip-rule:evenodd;stroke-linejoin:round;stroke-miterlimit:2;">
    <g transform="matrix(5.55556,0,0,5.55556,121.291,26.9156)">
        <path d="M0,19.611L0.078,19.611L0.078,-4.135L2.914,-4.135L2.914,23.746L-0.63,23.746L-16.855,-0.237L-16.934,-0.237L-16.934,23.746L-19.769,23.746L-19.769,-4.135L-16.225,-4.135L0,19.611Z" style="fill:white;fill-rule:nonzero;"/>
    </g>
    <g transform="matrix(5.55556,0,0,5.55556,302.669,29.1)">
        <path d="M0,18.824C-0.472,19.533 -1.043,20.203 -1.713,20.834C-2.382,21.466 -3.157,22.022 -4.036,22.502C-4.916,22.982 -5.887,23.362 -6.95,23.642C-8.014,23.922 -9.176,24.062 -10.436,24.062C-12.536,24.062 -14.479,23.694 -16.264,22.959C-18.05,22.224 -19.586,21.207 -20.872,19.907C-22.158,18.608 -23.162,17.066 -23.884,15.28C-24.607,13.495 -24.967,11.538 -24.967,9.412C-24.967,7.285 -24.6,5.33 -23.865,3.544C-23.13,1.759 -22.112,0.216 -20.812,-1.083C-19.513,-2.383 -17.977,-3.4 -16.205,-4.135C-14.433,-4.87 -12.51,-5.238 -10.436,-5.238C-9.412,-5.238 -8.408,-5.131 -7.423,-4.918C-6.439,-4.704 -5.513,-4.404 -4.647,-4.018C-3.78,-3.63 -2.993,-3.166 -2.284,-2.624C-1.575,-2.082 -0.984,-1.47 -0.512,-0.788L-2.875,0.945C-3.164,0.499 -3.551,0.053 -4.036,-0.394C-4.523,-0.84 -5.093,-1.234 -5.75,-1.575C-6.406,-1.916 -7.122,-2.192 -7.896,-2.402C-8.67,-2.612 -9.504,-2.718 -10.396,-2.718C-12.208,-2.718 -13.829,-2.39 -15.26,-1.736C-16.691,-1.081 -17.905,-0.198 -18.903,0.914C-19.901,2.026 -20.662,3.315 -21.187,4.781C-21.712,6.246 -21.974,7.79 -21.974,9.412C-21.974,11.034 -21.706,12.579 -21.167,14.044C-20.629,15.51 -19.861,16.799 -18.863,17.91C-17.866,19.023 -16.652,19.906 -15.221,20.56C-13.79,21.215 -12.182,21.542 -10.396,21.542C-8.795,21.542 -7.272,21.214 -5.828,20.557C-4.385,19.901 -3.177,18.85 -2.205,17.406L0,18.824Z" style="fill:white;fill-rule:nonzero;"/>
    </g>
    <g transform="matrix(5.55556,0,0,5.55556,450.627,29.1)">
        <path d="M0,18.824C-0.472,19.533 -1.043,20.203 -1.713,20.834C-2.382,21.466 -3.157,22.022 -4.036,22.502C-4.916,22.982 -5.887,23.362 -6.95,23.642C-8.014,23.922 -9.176,24.062 -10.436,24.062C-12.536,24.062 -14.479,23.694 -16.264,22.959C-18.05,22.224 -19.586,21.207 -20.872,19.907C-22.158,18.608 -23.162,17.066 -23.884,15.28C-24.607,13.495 -24.967,11.538 -24.967,9.412C-24.967,7.285 -24.6,5.33 -23.865,3.544C-23.13,1.759 -22.112,0.216 -20.812,-1.083C-19.513,-2.383 -17.977,-3.4 -16.205,-4.135C-14.433,-4.87 -12.51,-5.238 -10.436,-5.238C-9.412,-5.238 -8.408,-5.131 -7.423,-4.918C-6.439,-4.704 -5.513,-4.404 -4.647,-4.018C-3.78,-3.63 -2.993,-3.166 -2.284,-2.624C-1.575,-2.082 -0.984,-1.47 -0.512,-0.788L-2.875,0.945C-3.164,0.499 -3.551,0.053 -4.036,-0.394C-4.523,-0.84 -5.093,-1.234 -5.75,-1.575C-6.406,-1.916 -7.122,-2.192 -7.896,-2.402C-8.67,-2.612 -9.504,-2.718 -10.396,-2.718C-12.208,-2.718 -13.829,-2.39 -15.26,-1.736C-16.691,-1.081 -17.905,-0.198 -18.903,0.914C-19.901,2.026 -20.662,3.315 -21.187,4.781C-21.712,6.246 -21.974,7.79 -21.974,9.412C-21.974,11.034 -21.706,12.579 -21.167,14.044C-20.629,15.51 -19.861,16.799 -18.863,17.91C-17.866,19.023 -16.652,19.906 -15.221,20.56C-13.79,21.215 -12.182,21.542 -10.396,21.542C-8.795,21.542 -7.272,21.214 -5.828,20.557C-4.385,19.901 -3.177,18.85 -2.205,17.406L0,18.824Z" style="fill:white;fill-rule:nonzero;"/>
    </g>
    <g transform="matrix(5.55556,0,0,5.55556,489.778,89.9183)">
        <path d="M0,-3.071L4.923,-3.071C7.207,-3.071 8.965,-3.485 10.2,-4.312C11.434,-5.139 12.051,-6.379 12.051,-8.033C12.051,-8.952 11.88,-9.727 11.539,-10.357C11.197,-10.987 10.725,-11.499 10.121,-11.893C9.517,-12.286 8.782,-12.575 7.916,-12.759C7.049,-12.942 6.091,-13.035 5.041,-13.035L0,-13.035L0,-3.071ZM0,12.405L-2.835,12.405L-2.835,-15.476L5.356,-15.476C6.721,-15.476 7.988,-15.345 9.156,-15.082C10.324,-14.819 11.335,-14.393 12.189,-13.802C13.042,-13.212 13.705,-12.444 14.177,-11.499C14.65,-10.553 14.886,-9.398 14.886,-8.033C14.886,-7.009 14.702,-6.077 14.335,-5.237C13.967,-4.396 13.468,-3.668 12.838,-3.051C12.208,-2.434 11.46,-1.942 10.594,-1.575C9.727,-1.207 8.782,-0.97 7.758,-0.866L15.91,12.405L12.444,12.405L4.726,-0.629L0,-0.629L0,12.405Z" style="fill:white;fill-rule:nonzero;"/>
    </g>
    <g transform="matrix(5.55556,0,0,5.55556,122.867,219.371)">
        <path d="M0,27.973C-1.884,28.833 -4.055,29.263 -6.512,29.263C-8.751,29.263 -10.82,28.895 -12.717,28.157C-14.615,27.42 -16.26,26.376 -17.652,25.024C-19.045,23.673 -20.137,22.055 -20.929,20.171C-21.721,18.287 -22.116,16.213 -22.116,13.946C-22.116,11.625 -21.714,9.523 -20.908,7.639C-20.103,5.755 -18.99,4.151 -17.57,2.826C-16.151,1.502 -14.485,0.485 -12.574,-0.225C-10.663,-0.935 -8.601,-1.29 -6.39,-1.29C-4.342,-1.29 -2.328,-0.928 -0.348,-0.205C1.631,0.519 3.236,1.577 4.464,2.969L-0.287,7.72C-0.942,6.819 -1.802,6.151 -2.867,5.714C-3.932,5.277 -5.024,5.058 -6.144,5.058C-7.372,5.058 -8.498,5.283 -9.522,5.734C-10.546,6.184 -11.427,6.806 -12.164,7.598C-12.901,8.39 -13.475,9.325 -13.884,10.403C-14.294,11.482 -14.498,12.663 -14.498,13.946C-14.498,15.256 -14.294,16.458 -13.884,17.55C-13.475,18.642 -12.908,19.577 -12.185,20.355C-11.461,21.133 -10.594,21.741 -9.584,22.178C-8.574,22.615 -7.468,22.833 -6.266,22.833C-4.874,22.833 -3.659,22.561 -2.622,22.014C-1.584,21.468 -0.752,20.759 -0.123,19.884L4.751,24.471C3.467,25.946 1.884,27.113 0,27.973" style="fill:white;fill-rule:nonzero;"/>
    </g>
    <g transform="matrix(5.55556,0,0,5.55556,176.792,216.526)">
        <path d="M0,28.997L0,0L7.044,0L7.044,22.895L18.266,22.895L18.266,28.997L0,28.997Z" style="fill:white;fill-rule:nonzero;"/>
    </g>
    <g transform="matrix(5.55556,0,0,5.55556,-236.223,-3884.58)">
        <rect x="97.691" y="738.199" width="7.044" height="28.997" style="fill:white;"/>
    </g>
    <g transform="matrix(5.55556,0,0,5.55556,536.404,216.526)">
        <path d="M0,28.997L0.164,8.478L0.041,8.478L-7.495,28.997L-12.41,28.997L-19.741,8.478L-19.864,8.478L-19.7,28.997L-26.294,28.997L-26.294,0L-16.329,0L-9.727,18.594L-9.563,18.594L-3.248,0L6.88,0L6.88,28.997L0,28.997Z" style="fill:white;fill-rule:nonzero;"/>
    </g>
    <g transform="matrix(5.55556,0,0,5.55556,-175.269,-178.123)">
        <clipPath id="_clip1">
            <rect x="154.016" y="35.453" width="74.173" height="69.017" clip-rule="nonzero"/>
        </clipPath>
        <g clip-path="url(#_clip1)">
            <g transform="matrix(-1,0,0,1,326.268,-702.954)">
                <rect x="161.244" y="761.106" width="3.78" height="22.632" style="fill:rgb(49,49,129);"/>
            </g>
            <g transform="matrix(-1,0,0,1,333.828,-702.954)">
                <rect x="165.024" y="761.106" width="3.78" height="22.632" style="fill:rgb(92,164,218);"/>
            </g>
            <g transform="matrix(-1,0,0,1,341.388,-702.954)">
                <rect x="168.804" y="761.106" width="3.78" height="22.632" style="fill:rgb(168,211,241);"/>
            </g>
            <g transform="matrix(-1,0,0,1,348.946,-702.954)">
                <rect x="172.583" y="761.106" width="3.78" height="22.632" style="fill:rgb(29,98,175);"/>
            </g>
            <g transform="matrix(-1,0,0,1,356.504,-702.954)">
                <rect x="176.362" y="761.106" width="3.78" height="22.632" style="fill:rgb(253,205,171);"/>
            </g>
            <g transform="matrix(-1,0,0,1,364.064,-702.954)">
                <rect x="180.142" y="761.106" width="3.78" height="22.632" style="fill:rgb(29,98,175);"/>
            </g>
            <g transform="matrix(-1,0,0,1,371.624,-702.954)">
                <rect x="183.922" y="738.406" width="3.78" height="68.032" style="fill:rgb(29,98,175);"/>
            </g>
            <g transform="matrix(-1,0,0,1,379.182,-702.954)">
                <rect x="187.701" y="738.406" width="3.78" height="68.032" style="fill:rgb(92,164,218);"/>
            </g>
            <g transform="matrix(-1,0,0,1,386.742,-702.954)">
                <rect x="191.481" y="738.406" width="3.78" height="68.032" style="fill:rgb(253,205,171);"/>
            </g>
            <g transform="matrix(-1,0,0,1,394.3,-702.954)">
                <rect x="195.26" y="738.406" width="3.78" height="68.032" style="fill:rgb(249,165,125);"/>
            </g>
            <g transform="matrix(-1,0,0,1,401.86,-702.954)">
                <rect x="199.04" y="738.406" width="3.78" height="68.032" style="fill:rgb(208,236,239);"/>
            </g>
            <g transform="matrix(-1,0,0,1,409.418,-702.954)">
                <rect x="202.819" y="738.406" width="3.78" height="68.032" style="fill:rgb(244,128,84);"/>
            </g>
            <g transform="matrix(-1,0,0,1,416.978,-702.954)">
                <rect x="206.599" y="761.106" width="3.78" height="22.632" style="fill:rgb(237,38,36);"/>
            </g>
            <g transform="matrix(-1,0,0,1,424.536,-702.954)">
                <rect x="210.378" y="761.106" width="3.78" height="22.632" style="fill:rgb(249,165,125);"/>
            </g>
            <g transform="matrix(-1,0,0,1,432.096,-702.954)">
                <rect x="214.158" y="761.106" width="3.78" height="22.632" style="fill:rgb(244,128,84);"/>
            </g>
            <g transform="matrix(-1,0,0,1,439.654,-702.954)">
                <rect x="217.937" y="761.106" width="3.78" height="22.632" style="fill:rgb(237,38,36);"/>
            </g>
            <g transform="matrix(-1,0,0,1,447.214,-702.954)">
                <rect x="221.717" y="761.106" width="3.78" height="22.632" style="fill:rgb(134,22,24);"/>
            </g>
            <g transform="matrix(-1,0,0,1,454.772,-702.954)">
                <rect x="225.496" y="761.106" width="3.78" height="22.632" style="fill:rgb(134,22,24);"/>
            </g>
        </g>
    </g>
</svg>
